<svg width="115" height="34" viewBox="0 0 115 34" fill="none" xmlns="http://www.w3.org/2000/svg">
<path d="M0 12.8999V15.4999H2.5V12.8999H0Z" fill="#FFC700"/>
<path d="M11.6 4.5C10 4.5 8.80002 5.2 8.00002 6.2H7.90002V0H5.90002V15.5H7.90002V10.2C7.90002 8.1 9.20002 6.6 11.2 6.6C13 6.6 14.1 8 14.1 9.8V15.5H16.1V9.4C16.2 6.4 14.3 4.5 11.6 4.5Z" fill="#FFC700"/>
<path d="M26.6 4.8001H21.8V1.1001H19.8V4.9001H17.9V6.9001H19.8V12.9001C19.8 14.6001 20.8 15.6001 22.5 15.6001H26.6V13.6001H22.9C22.2 13.6001 21.8 13.2001 21.8 12.5001V6.8001H26.6V4.8001Z" fill="#FFC700"/>
<path d="M41.1 4.6001C39.5 4.6001 38.2 5.4001 37.6 6.7001H37.5C36.9 5.5001 35.7 4.6001 34.1 4.6001C32.7 4.6001 31.6 5.4001 31 6.4001H30.9V4.8001H29V15.4001H31V10.0001C31 8.0001 32 6.5001 33.6 6.5001C35.1 6.5001 36 7.5001 36 9.1001V15.4001H38V9.8001C38 7.4001 39.4 6.5001 40.6 6.5001C42.1 6.5001 43 7.5001 43 9.1001V15.4001H45V8.9001C45.1 6.4001 43.6 4.6001 41.1 4.6001Z" fill="#FFC700"/>
<path d="M47.8 12.7C47.8 14.4 48.8 15.4 50.6 15.4H52.6V13.4H50.9001C50.2001 13.4 49.8 13 49.8 12.3V0H47.8V12.7V12.7Z" fill="#FFC700"/>
<path d="M28.9 19.6999C28 18.5999 26.7 17.8999 25 17.8999C21.9 17.8999 19.6 20.1999 19.6 23.4999C19.6 26.7999 21.9 29.0999 25 29.0999C26.8 29.0999 28 28.2999 28.8 27.1999H28.9V28.7999H30.9V18.1999H28.9V19.6999V19.6999ZM25.3 27.0999C23.1 27.0999 21.7 25.4999 21.7 23.4999C21.7 21.4999 23.1 19.8999 25.3 19.8999C27.5 19.8999 28.9 21.4999 28.9 23.4999C28.9 25.3999 27.5 27.0999 25.3 27.0999Z" fill="#FFC700"/>
<path d="M44.2 21.9999C43.7 19.5999 41.5999 17.8999 38.7999 17.8999C35.3999 17.8999 33.2 20.3999 33.2 23.4999C33.2 26.5999 35.3999 29.0999 38.7999 29.0999C41.5999 29.0999 43.7 27.2999 44.2 24.8999H42.0999C41.6999 26.1999 40.3999 27.1999 38.7999 27.1999C36.5999 27.1999 35.2 25.5999 35.2 23.5999C35.2 21.5999 36.5999 19.9999 38.7999 19.9999C40.3999 19.9999 41.5999 20.9999 42.0999 22.1999H44.2V21.9999Z" fill="#FFC700"/>
<path d="M55.1 19.6999C54.2 18.5999 52.9001 17.8999 51.2001 17.8999C48.1001 17.8999 45.8 20.1999 45.8 23.4999C45.8 26.7999 48.1001 29.0999 51.2001 29.0999C53.0001 29.0999 54.2 28.2999 55 27.1999H55.1V28.7999H57.1V18.1999H55.1V19.6999ZM51.5 27.0999C49.3 27.0999 47.9001 25.4999 47.9001 23.4999C47.9001 21.4999 49.3 19.8999 51.5 19.8999C53.7 19.8999 55.1 21.4999 55.1 23.4999C55.1 25.3999 53.6 27.0999 51.5 27.0999Z" fill="#FFC700"/>
<path d="M68.7 19.7999C67.8 18.6999 66.5 17.8999 64.8 17.8999C61.7 17.8999 59.4 20.1999 59.4 23.4999C59.4 26.7999 61.6 29.0999 64.8 29.0999C66.5 29.0999 67.8 28.2999 68.6 27.2999H68.7V28.7999H70.7V13.3999H68.7V19.7999V19.7999ZM65.1 27.0999C62.9 27.0999 61.5 25.4999 61.5 23.4999C61.5 21.4999 62.9 19.8999 65.1 19.8999C67.3 19.8999 68.7 21.4999 68.7 23.4999C68.6 25.4999 67.2 27.0999 65.1 27.0999Z" fill="#FFC700"/>
<path d="M78.3 17.8999C75 17.8999 72.8 20.3999 72.8 23.4999C72.8 26.4999 74.9 29.0999 78.3 29.0999C80.8 29.0999 82.8 27.7999 83.5 25.4999H81.4C80.9 26.4999 79.8 27.0999 78.4 27.0999C76.5 27.0999 75.1 25.7999 75 24.1999H83.8C84 20.5999 81.8 17.8999 78.3 17.8999ZM78.3 19.7999C80 19.7999 81.3 20.7999 81.6 22.3999H75.1C75.4 20.8999 76.6 19.7999 78.3 19.7999Z" fill="#FFC700"/>
<path d="M98.2 17.8999C96.6 17.8999 95.3 18.6999 94.6 19.8999H94.5C93.9 18.6999 92.7 17.8999 91.1 17.8999C89.7 17.8999 88.6 18.5999 88 19.6999V19.6999V18.1999H86.1V28.7999H88.1V23.3999C88.1 21.3999 89.1 19.9999 90.7 19.8999C92.2 19.8999 93.1 20.8999 93.1 22.4999V28.7999H95.1V23.1999C95.1 20.7999 96.5 19.8999 97.7 19.8999C99.2 19.8999 100.1 20.8999 100.1 22.4999V28.7999H102.1V22.2999C102.2 19.6999 100.7 17.8999 98.2 17.8999Z" fill="#FFC700"/>
<path d="M109.4 27.0001L105.8 18.1001H103.6L108.4 29.7001C108.1 30.6001 107.7 30.9001 106.7 30.9001H104.2V32.9001H106.7C108.5 32.9001 109.5 32.1001 110.2 30.3001L114.9 18.1001H112.8L109.4 27.0001Z" fill="#FFC700"/>
</svg>
