<svg xmlns="http://www.w3.org/2000/svg" fill="none" viewBox="0 0 48 54"><path fill="#FFE17F" d="M24 48c13.255 0 24-10.745 24-24S37.255 0 24 0 0 10.745 0 24s10.745 24 24 24z"/><path fill="#000" d="M24.1 16.2c-3.1 0-5.6 2.6-5.6 5.8 0 .6.1 1.1.2 1.6.1.4.3.9.5 1.2.8 1.7 2 3.3 4.3 6 .2.2.7.6 1.3-.1 4.8-5.4 4.8-8.1 4.8-8.1v-.7c.1-3.1-2.4-5.7-5.5-5.7z"/><path fill="#000" d="M24 0C10.7 0 0 10.7 0 24c0 11.9 8.7 21.8 20.1 23.7l4 6.3 4-6.4C39.4 45.7 48 35.9 48 24 48 10.7 37.3 0 24 0zm9 22.4s.1 4.3-8.1 13c-.8.8-1.6 0-1.6 0-3.8-4.4-5.8-6.9-7.1-9.6-.3-.6-.6-1.2-.8-1.9-.2-.8-.4-1.6-.4-2.5 0-5 4.1-9.1 9.1-9.1s9.1 4.1 9.1 9.1c-.1.3-.2.6-.2 1z"/></svg>