<svg xmlns="http://www.w3.org/2000/svg" fill="none" viewBox="0 0 15 14"><g clip-path="url(#clip0)"><path fill="#000" d="M9.7.1c1.5-.5 2.6.3 3.2 1.1.5-.2 1.1-.4 1.7-.6 0 .8-.5 1.4-.8 1.6.7.2 1.2-.4 1.2-.4-.1.9-.9 1.7-1.4 1.9-.2 6.3-2.8 10.4-8.9 10.3h-.4C4 14 .6 13.6 0 12.2c2 .2 3.4-.4 4.1-1.1-.8-.3-2.4-.4-2.6-2.8.3.2.5.3 1.1.2C1.5 7.7.3 7 .4 5c.3.3.9.5 1.2.4C1 5.2-.2 2.3.8.8c1.6 1.7 3.3 3.4 6.3 3.5.2-2.1 1-3.5 2.6-4.2z"/></g><defs><clipPath id="clip0"><path fill="#fff" d="M0 0h15v14H0z"/></clipPath></defs></svg>