<?xml version="1.0" encoding="utf-8"?>
<!-- Generator: Adobe Illustrator 25.0.1, SVG Export Plug-In . SVG Version: 6.00 Build 0)  -->
<svg version="1.1" id="Layer_1" xmlns="http://www.w3.org/2000/svg" xmlns:xlink="http://www.w3.org/1999/xlink" x="0px" y="0px"
	 viewBox="0 0 160 160" style="enable-background:new 0 0 160 160;" xml:space="preserve">
<style type="text/css">
	.st0{clip-path:url(#SVGID_2_);}
	.st1{fill:#363636;}
</style>
<g>
	<defs>
		<rect id="SVGID_1_" x="44.5" y="36.5" width="71" height="87"/>
	</defs>
	<clipPath id="SVGID_2_">
		<use xlink:href="#SVGID_1_"  style="overflow:visible;"/>
	</clipPath>
	<g class="st0">
		<path class="st1" d="M97.8,38c0-0.7-0.6-1.5-1.3-1.5h-43c-0.7,0-1.4,0.8-1.4,1.5v3.5h45.7L97.8,38z M98.7,118.3h-9.6v-10.4h-7v2.5
			H63.3c-0.5-1.3-1.8-2.1-3.2-2.1h-12c-1.9,0-3.6,1.6-3.6,3.5v3c0,1.9,1.6,3.5,3.6,3.5h12c1.5,0,2.8-0.9,3.3-2.3h18.8v2.3h-9.5
			c-0.5,0-1,0.4-1,1v3.2c0,0.5,0.5,1,1,1h26.1c0.5,0,0.9-0.5,0.9-1v-3.2C99.6,118.7,99.2,118.3,98.7,118.3z M105.2,48.9
			c-0.9-3-3.6-5.1-6.8-5H51.6c-3.9,0-7.1,3.1-7.1,7v46.9c0,3.9,3.2,7.1,7.1,7.1h46.7c3.9,0,7.1-3.2,7.1-7.1V87.4
			c6.3-4.4,10-11.5,10-19.2C115.5,60.2,111.4,53.1,105.2,48.9z M56.7,98.7c-3.3,0-5.9-2.7-5.9-5.9c0-3.3,2.6-5.9,5.9-5.9
			c3.3,0,5.9,2.7,5.9,5.9C62.6,96,60,98.7,56.7,98.7z M62.7,66c0,0.8-0.6,1.4-1.4,1.4c0,0,0,0,0,0h-8.9c-0.8,0-1.4-0.6-1.4-1.4
			c0,0,0,0,0,0V51.9c0-0.8,0.6-1.4,1.4-1.4c0,0,0,0,0,0h8.9c0.8,0,1.4,0.6,1.4,1.4c0,0,0,0,0,0L62.7,66z M92.3,88.4
			c-11.1,0-20.1-9-20.1-20.1s9-20.1,20.1-20.1s20.1,9,20.1,20.1S103.3,88.4,92.3,88.4z"/>
		<path class="st1" d="M92.3,80.5c6.7,0,12.2-5.5,12.2-12.2S99,56,92.3,56s-12.2,5.5-12.2,12.2S85.5,80.5,92.3,80.5z M76.1,69.7
			c0.8,0,1.4-0.6,1.4-1.4c0-0.8-0.6-1.4-1.4-1.4c0,0,0,0,0,0c-0.8,0-1.4,0.6-1.4,1.4C74.6,69,75.3,69.7,76.1,69.7z M108.5,69.7
			c0.8,0,1.4-0.6,1.4-1.4c0-0.8-0.6-1.4-1.4-1.4c0,0,0,0,0,0c-0.8,0-1.4,0.6-1.4,1.4C107,69,107.7,69.7,108.5,69.7z M83.6,55.9
			c0.8,0,1.4-0.6,1.4-1.4c0-0.8-0.6-1.4-1.4-1.4c0,0,0,0,0,0c-0.8,0-1.4,0.6-1.4,1.4C82.2,55.3,82.8,55.9,83.6,55.9z M100.9,83.4
			c0.8,0,1.4-0.6,1.4-1.4s-0.6-1.4-1.4-1.4s-1.4,0.6-1.4,1.4S100.1,83.4,100.9,83.4z M100.2,55.5c0.8,0,1.4-0.6,1.4-1.4
			c0-0.8-0.6-1.4-1.4-1.4c0,0,0,0,0,0c-0.8,0-1.4,0.6-1.4,1.4C98.8,54.9,99.4,55.5,100.2,55.5z M84.3,83.8c0.8,0,1.4-0.6,1.4-1.4
			c0-0.8-0.6-1.4-1.4-1.4c0,0,0,0,0,0c-0.8,0-1.4,0.6-1.4,1.4C82.9,83.2,83.5,83.8,84.3,83.8z"/>
	</g>
</g>
</svg>
