<?xml version="1.0" encoding="utf-8"?>
<!-- Generator: Adobe Illustrator 25.0.1, SVG Export Plug-In . SVG Version: 6.00 Build 0)  -->
<svg version="1.1" id="Layer_1" xmlns="http://www.w3.org/2000/svg" xmlns:xlink="http://www.w3.org/1999/xlink" x="0px" y="0px"
	 viewBox="0 0 160 160" style="enable-background:new 0 0 160 160;" xml:space="preserve">
<style type="text/css">
	.st0{clip-path:url(#SVGID_2_);}
	.st1{fill:#363636;}
</style>
<g>
	<defs>
		<rect id="SVGID_1_" x="14" y="45.5" width="132" height="69"/>
	</defs>
	<clipPath id="SVGID_2_">
		<use xlink:href="#SVGID_1_"  style="overflow:visible;"/>
	</clipPath>
	<g class="st0">
		<path class="st1" d="M26.1,45.8c-5.5,0.5-10.2,1.6-11.5,2.7c-0.7,0.6-0.7,0.6-0.2,1.2c0.6,0.7,3.7,1.6,7.2,2.2
			c4,0.7,12.5,0.7,13.7,0.1c1.2-0.7,1.6-1.4,1.6-3c0-1.6-0.6-2.4-2.2-2.9C33.3,45.7,28.9,45.5,26.1,45.8z M39.8,46
			c-0.1,0.3-0.3,2.1-0.3,4.1c0,4.1,0.2,3.8-2.2,3.9l-1,0.1L36,59.2l-1.2,0.3c-2.6,0.7-4,2.6-3.8,5.3c0.1,1.9,1,3.3,2.6,4.1
			c1.1,0.5,1.5,0.5,11.2,0.5c5.5,0,10.1,0.1,10.2,0.2c0.1,0.1-1.1,9.4-2.6,20.6c-1.4,11.2-2.7,21-2.7,21.7c-0.1,1.6,0.8,2.6,2.3,2.6
			c1.2,0,2-0.6,2.3-1.9c0.1-0.5,1.5-10.3,3-21.8c1.5-11.5,2.9-20.9,2.9-20.9c0.1,0,1.1,1.4,2.2,3.1c2.9,4.6,2.4,4.3,7.6,4.3h4.4V83
			l-5.1,0.1c-4.7,0.1-5.2,0.1-5.9,0.6c-1.6,1.2-1.6,1.4-1.6,11c0,9.5,0,9.8,1.5,11.1l0.9,0.7h31.4l0.9-0.7c1.5-1.3,1.5-1.5,1.5-11.1
			c0-9.6-0.1-9.8-1.6-11c-0.7-0.5-1.2-0.5-5.9-0.6L85.4,83v-5.6h4.4c5.2,0,4.7,0.3,7.6-4.3c1.1-1.7,2.1-3.1,2.2-3.1
			c0.1,0,1.4,9.4,2.9,20.9c1.5,11.5,2.9,21.3,3,21.8c0.3,1.3,1.1,1.9,2.3,1.9c1.5,0,2.4-1,2.3-2.6c0-0.7-1.3-10.4-2.7-21.7
			c-1.5-11.2-2.6-20.5-2.6-20.6c0.1-0.1,4.6-0.2,10.2-0.2c9.8,0,10.1,0,11.2-0.5c1.5-0.7,2.4-2.2,2.6-4.1c0.2-2.7-1.2-4.6-3.8-5.3
			l-1.2-0.3l-0.3-5.1l-1-0.1c-2.3-0.2-2.2,0.1-2.2-3.9c0-2-0.1-3.8-0.3-4.1c-0.2-0.4-0.5-0.5-1.4-0.5c-0.6,0-1.2,0.1-1.4,0.3
			c-0.2,0.2-0.3,1.5-0.3,3.9s-0.1,3.7-0.3,3.9c-0.2,0.2-0.9,0.3-1.6,0.3c-1.6,0-1.7,0.1-1.7,3.1v2.3H46.5v-2.3c0-3.1,0-3.1-1.6-3.1
			c-0.7,0-1.5-0.1-1.7-0.3c-0.2-0.2-0.3-1.5-0.3-3.9s-0.1-3.7-0.3-3.9c-0.2-0.2-0.8-0.3-1.4-0.3C40.3,45.5,40,45.6,39.8,46z
			 M82.6,86.1c2.9,0.9,5.4,3.4,6.2,6.2c0.4,1.5,0.3,4.2-0.3,5.8c-0.7,1.9-2.7,4-4.6,4.9c-1.3,0.6-1.8,0.7-3.9,0.7s-2.6-0.1-3.9-0.7
			c-1.9-0.9-3.9-3.1-4.6-4.9c-0.6-1.6-0.7-4.2-0.3-5.8c0.7-2.7,3.2-5.3,6.1-6.2C79.3,85.5,80.6,85.5,82.6,86.1z"/>
		<path class="st1" d="M77.8,89.9c-2,0.9-3.5,3.6-3.1,5.7c0.8,3.7,4.8,5.6,8,3.7c2-1.2,3-3.5,2.4-5.8c-0.6-2.4-2.7-4.1-5.2-4.1
			C79.4,89.4,78.4,89.7,77.8,89.9L77.8,89.9z M50.1,45.7c-3.9,0.7-4.5,1.1-4.5,3.4c0,1.8,0.5,2.4,2.3,3c1.5,0.5,7.2,0.5,10.5,0.1
			c6.9-0.8,11.3-2.5,9.7-3.8c-1.3-0.9-4.9-1.9-9.1-2.4C56.5,45.7,51,45.5,50.1,45.7L50.1,45.7z M103.5,45.8
			c-6.3,0.6-11.9,2.1-11.9,3.2c0,1.7,7.8,3.5,15.6,3.5c5.8,0,7.2-0.6,7.2-3.3c0-1.8-0.6-2.6-2.4-3.1
			C110.4,45.6,106.4,45.5,103.5,45.8z M126.8,45.8c-1.8,0.2-3,0.8-3.4,1.5c-0.4,0.8-0.3,2.9,0.2,3.6c0.9,1.3,1.7,1.5,7.1,1.5
			c3.7,0,5.8-0.1,7.9-0.5c3.5-0.6,6.6-1.5,7.2-2.2c0.5-0.5,0.5-0.5-0.2-1.2c-1.3-1.1-6-2.2-11.9-2.7C130.1,45.5,129,45.5,126.8,45.8
			z"/>
	</g>
</g>
</svg>
