<?xml version="1.0" encoding="utf-8"?>
<!-- Generator: Adobe Illustrator 25.0.1, SVG Export Plug-In . SVG Version: 6.00 Build 0)  -->
<svg version="1.1" id="Layer_1" xmlns="http://www.w3.org/2000/svg" xmlns:xlink="http://www.w3.org/1999/xlink" x="0px" y="0px"
	 viewBox="0 0 160 160" style="enable-background:new 0 0 160 160;" xml:space="preserve">
<style type="text/css">
	.st0{clip-path:url(#SVGID_2_);}
	.st1{fill:#363636;}
</style>
<g>
	<defs>
		<rect id="SVGID_1_" x="26.5" y="47.5" width="107" height="65"/>
	</defs>
	<clipPath id="SVGID_2_">
		<use xlink:href="#SVGID_1_"  style="overflow:visible;"/>
	</clipPath>
	<g class="st0">
		<path class="st1" d="M125.5,51.6c0.8,1.4,1.2,3.1,1.2,4.8v21.1c0,4.6-3.1,8.5-7.2,9.9c-1.3,4-3.8,7.9-8.1,10.4
			c-8.7,5.2-31.1,4.8-31.2,4.8c-0.1,0-22.5,0.4-31.2-4.8c-4.2-2.5-6.7-6.3-8-10.3c-4.4-1.2-7.8-5.3-7.8-10.1V56.4
			c0-1.7,0.4-3.3,1.1-4.7c-3.7,0.9-7.8,2.7-7.8,6.2v30c0,10.3,11.8,24.4,53.7,24.4c41.8,0,53.7-14.2,53.7-24.4v-30
			C133.8,54.2,129.2,52.4,125.5,51.6z"/>
		<path class="st1" d="M47.1,86h65.5c5.6,0,10.1-4.5,10.1-10.1V57.4c0-5.6-4.5-10.1-10.1-10.1H47.1c-5.6,0-10.1,4.5-10.1,10.1v18.4
			C37,81.4,41.5,86,47.1,86z M110.2,57c0.9,0,1.6,0.7,1.6,1.5c0,0.9-0.7,1.6-1.5,1.6c0,0-0.1,0-0.1,0c-0.9,0-1.6-0.7-1.5-1.6
			C108.7,57.7,109.4,57,110.2,57z M110.2,61c0.9,0,1.6,0.7,1.6,1.6s-0.7,1.6-1.6,1.6l0,0c-0.9,0-1.6-0.7-1.6-1.6S109.3,61,110.2,61z
			 M110.2,65c0.9,0,1.6,0.7,1.6,1.6s-0.7,1.6-1.6,1.6s-1.6-0.7-1.6-1.6S109.3,65,110.2,65C110.2,65,110.2,65,110.2,65z M110.2,68.9
			c0.9,0,1.6,0.7,1.6,1.6c0,0.9-0.7,1.6-1.6,1.6c-0.9,0-1.6-0.7-1.6-1.6C108.6,69.6,109.3,68.9,110.2,68.9z M110.2,72.9
			c0.9,0,1.6,0.7,1.6,1.6c0,0.9-0.7,1.6-1.6,1.6c-0.9,0-1.6-0.7-1.6-1.6C108.6,73.6,109.3,72.9,110.2,72.9L110.2,72.9z M106.2,57
			c0.9,0,1.6,0.7,1.6,1.6c0,0.9-0.7,1.6-1.6,1.6s-1.6-0.7-1.6-1.6C104.6,57.7,105.3,57,106.2,57z M106.2,72.9c0.9,0,1.6,0.7,1.6,1.5
			c0,0.9-0.7,1.6-1.5,1.6c0,0-0.1,0-0.1,0c-0.9,0-1.5-0.7-1.5-1.6C104.6,73.6,105.3,72.9,106.2,72.9z M102.1,57
			c0.9,0,1.6,0.7,1.6,1.6c0,0.9-0.7,1.6-1.6,1.6s-1.6-0.7-1.6-1.6C100.5,57.7,101.3,57,102.1,57z M102.1,61c0.9,0,1.6,0.7,1.6,1.5
			s-0.7,1.6-1.5,1.6c0,0-0.1,0-0.1,0c-0.9,0-1.6-0.7-1.5-1.6C100.6,61.7,101.3,61,102.1,61z M102.1,65c0.9,0,1.6,0.7,1.6,1.6
			c0,0.9-0.7,1.6-1.6,1.6l0,0c-0.9,0-1.6-0.7-1.6-1.6C100.5,65.7,101.3,65,102.1,65z M102.1,68.9c0.9,0,1.6,0.7,1.6,1.6
			c0,0.9-0.7,1.6-1.6,1.6s-1.6-0.7-1.6-1.6C100.6,69.6,101.3,68.9,102.1,68.9z M102.1,72.9c0.9,0,1.6,0.7,1.6,1.6
			c0,0.9-0.7,1.6-1.6,1.6c-0.9,0-1.6-0.7-1.6-1.6C100.5,73.6,101.3,72.9,102.1,72.9L102.1,72.9z M94.5,57c0.9,0,1.6,0.7,1.6,1.6
			c0,0.9-0.7,1.6-1.6,1.6s-1.6-0.7-1.6-1.6C92.9,57.7,93.6,57,94.5,57C94.5,57,94.5,57,94.5,57z M94.5,65c0.9,0,1.6,0.7,1.6,1.6
			s-0.7,1.6-1.6,1.6c-0.9,0-1.6-0.7-1.6-1.6C92.9,65.7,93.6,65,94.5,65C94.5,65,94.5,65,94.5,65z M94.5,68.9c0.9,0,1.6,0.6,1.6,1.5
			c0,0.9-0.6,1.6-1.5,1.6c0,0-0.1,0-0.1,0c-0.9,0-1.5-0.8-1.5-1.6C93,69.6,93.6,69,94.5,68.9z M94.5,72.9c0.9,0,1.6,0.7,1.6,1.5
			c0,0.9-0.7,1.6-1.5,1.6c0,0-0.1,0-0.1,0c-0.9,0-1.5-0.7-1.5-1.6C93,73.6,93.6,72.9,94.5,72.9z M90.4,57c0.9,0,1.6,0.7,1.6,1.6
			c0,0.9-0.7,1.6-1.6,1.6c-0.9,0-1.6-0.7-1.6-1.6C88.9,57.7,89.6,57,90.4,57L90.4,57z M90.4,65c0.9,0,1.6,0.7,1.6,1.5
			c0,0.9-0.7,1.6-1.5,1.6c0,0-0.1,0-0.1,0c-0.9,0-1.6-0.7-1.5-1.6C88.9,65.7,89.6,65.1,90.4,65z M90.4,72.9c0.9,0,1.6,0.7,1.6,1.5
			s-0.7,1.6-1.5,1.6c0,0-0.1,0-0.1,0c-0.9,0-1.6-0.7-1.5-1.6C88.9,73.6,89.6,72.9,90.4,72.9z M86.4,57c0.9,0,1.6,0.7,1.5,1.6
			c0,0.8-0.7,1.5-1.5,1.5c-0.9,0-1.6-0.7-1.6-1.6c0,0,0,0,0,0C84.8,57.7,85.5,57,86.4,57C86.4,57,86.4,57,86.4,57z M86.4,61
			c0.9,0,1.6,0.6,1.7,1.5c0,0.9-0.6,1.6-1.5,1.7c-0.1,0-0.1,0-0.2,0c-0.9,0-1.5-0.8-1.5-1.7C85,61.7,85.6,61.1,86.4,61z M86.4,65
			c0.9,0,1.6,0.7,1.6,1.6s-0.7,1.6-1.6,1.6c-0.9,0-1.6-0.7-1.6-1.6C84.8,65.7,85.5,65,86.4,65z M86.4,72.9c0.9,0,1.5,0.8,1.5,1.6
			c0,0.8-0.7,1.5-1.5,1.5c-0.9,0-1.6-0.7-1.5-1.6C84.9,73.6,85.6,72.9,86.4,72.9z M78.1,57c0.9,0,1.6,0.7,1.6,1.5s-0.7,1.6-1.5,1.6
			c0,0-0.1,0-0.1,0c-0.9,0-1.6-0.7-1.5-1.6C76.6,57.7,77.3,57,78.1,57z M78.1,61c0.9,0,1.6,0.7,1.6,1.6s-0.7,1.6-1.6,1.6l0,0
			c-0.9,0-1.6-0.7-1.6-1.6S77.2,61,78.1,61z M78.1,65c0.9,0,1.6,0.7,1.6,1.6s-0.7,1.6-1.6,1.6s-1.6-0.7-1.6-1.6S77.2,65,78.1,65z
			 M78.1,68.9c0.9,0,1.6,0.7,1.6,1.6s-0.7,1.6-1.6,1.6c-0.9,0-1.6-0.7-1.5-1.6C76.6,69.6,77.3,68.9,78.1,68.9z M78.1,72.9
			c0.9,0,1.6,0.7,1.6,1.6c0,0.9-0.7,1.6-1.6,1.6c-0.9,0-1.6-0.7-1.6-1.6C76.5,73.6,77.2,72.9,78.1,72.9L78.1,72.9z M74.1,61
			c0.9,0,1.6,0.7,1.6,1.6s-0.7,1.6-1.6,1.6c-0.9,0-1.6-0.7-1.6-1.6C72.5,61.7,73.2,61,74.1,61z M65.6,60.8c0.9,0,1.6,0.6,1.7,1.5
			s-0.6,1.6-1.5,1.7c-0.1,0-0.1,0-0.2,0c-0.9,0-1.5-0.8-1.5-1.7C64.1,61.5,64.8,60.8,65.6,60.8z M65.6,64.8c0.9,0,1.6,0.7,1.6,1.6
			S66.4,68,65.6,68l0,0c-0.9,0-1.6-0.7-1.6-1.6S64.7,64.8,65.6,64.8z M61.5,56.8c0.9,0,1.6,0.7,1.6,1.6s-0.7,1.6-1.6,1.6
			s-1.6-0.7-1.6-1.6S60.7,56.8,61.5,56.8L61.5,56.8z M61.5,60.8c0.9,0,1.6,0.7,1.6,1.5c0,0.9-0.7,1.6-1.5,1.6c0,0-0.1,0-0.1,0
			c-0.9,0-1.6-0.7-1.5-1.6C60,61.5,60.7,60.8,61.5,60.8z M61.5,64.8c0.9,0,1.6,0.7,1.6,1.6c0,0.9-0.7,1.6-1.6,1.6l0,0
			c-0.9,0-1.6-0.7-1.6-1.6C59.9,65.5,60.7,64.8,61.5,64.8z M61.5,68.9c0.9,0,1.6,0.7,1.6,1.5c0,0.9-0.7,1.6-1.5,1.6c0,0-0.1,0-0.1,0
			c-0.9,0-1.6-0.7-1.5-1.6C60,69.6,60.7,68.9,61.5,68.9z M57.3,60.8c0.9,0,1.6,0.7,1.6,1.6c0,0.9-0.7,1.6-1.6,1.6c0,0,0,0,0,0
			c-0.9,0-1.6-0.7-1.6-1.6S56.4,60.8,57.3,60.8z M57.3,64.8c0.9,0,1.6,0.7,1.6,1.5S58.2,68,57.3,68c0,0-0.1,0-0.1,0
			c-0.9,0-1.6-0.7-1.5-1.6C55.8,65.5,56.4,64.9,57.3,64.8z M57.3,68.9c0.9,0,1.6,0.7,1.6,1.6c0,0.9-0.7,1.6-1.6,1.6
			c-0.9,0-1.6-0.7-1.6-1.6C55.7,69.6,56.4,68.9,57.3,68.9z M57.3,72.9c0.9,0,1.6,0.7,1.6,1.6S58.1,76,57.3,76
			c-0.9,0-1.6-0.7-1.6-1.6C55.7,73.6,56.4,72.9,57.3,72.9C57.3,72.9,57.3,72.9,57.3,72.9z M52.8,56.8L52.8,56.8z M52.8,60.8
			c0.9,0,1.6,0.7,1.6,1.6c0,0.9-0.7,1.6-1.6,1.6c-0.9,0-1.6-0.7-1.6-1.6C51.2,61.5,51.9,60.8,52.8,60.8z M52.8,64.8
			c0.9,0,1.6,0.6,1.6,1.5s-0.6,1.6-1.5,1.6c0,0-0.1,0-0.1,0c-0.9,0-1.5-0.8-1.5-1.6C51.3,65.5,52,64.9,52.8,64.8z M52.8,68.9
			L52.8,68.9z M48.8,60.8c0.9,0,1.6,0.6,1.7,1.5c0,0.9-0.6,1.6-1.5,1.7c-0.1,0-0.1,0-0.2,0c-0.9,0-1.5-0.8-1.5-1.7
			C47.3,61.5,48,60.8,48.8,60.8z M48.8,64.8c0.9,0,1.6,0.7,1.6,1.6c0,0.9-0.7,1.6-1.6,1.6c-0.9,0-1.6-0.7-1.6-1.6
			C47.2,65.5,47.9,64.8,48.8,64.8z"/>
	</g>
</g>
</svg>
