<svg width="86" height="117" viewBox="0 0 86 117" fill="none" xmlns="http://www.w3.org/2000/svg">
<path d="M82.821 4.011H3.33C1.569 4.011 0.141998 5.438 0.141998 7.199V53.612C0.141998 55.375 1.569 56.801 3.33 56.801H82.822C84.584 56.801 86.011 55.374 86.011 53.612V7.199C86.011 5.438 84.583 4.011 82.821 4.011ZM8.392 37.236H8.166C6.404 37.236 4.977 35.807 4.977 34.047V26.764C4.977 25.003 6.404 23.576 8.166 23.576H8.392V37.236ZM69.623 52.408H13.341V8.402H69.623V52.408ZM78.4 34.552C76.111 34.552 74.254 32.697 74.254 30.405C74.254 28.113 76.11 26.258 78.4 26.258C80.691 26.258 82.548 28.113 82.548 30.405C82.548 32.697 80.691 34.552 78.4 34.552Z" fill="#363636"/>
<path d="M54.654 0H31.497V2.758H54.654V0Z" fill="#363636"/>
<path d="M46.608 64.861V61.888H54.654V59.13H31.498V61.888H39.543V97.134C37.404 98.072 35.908 100.206 35.908 102.693V117H50.243V102.693C50.243 100.207 48.748 98.072 46.607 97.136V69.146H51.403L56.454 70.359V63.648L51.403 64.861H46.608Z" fill="#363636"/>
</svg>
