<?xml version="1.0" encoding="utf-8"?>
<!-- Generator: Adobe Illustrator 25.0.1, SVG Export Plug-In . SVG Version: 6.00 Build 0)  -->
<svg version="1.1" id="Layer_1" xmlns="http://www.w3.org/2000/svg" xmlns:xlink="http://www.w3.org/1999/xlink" x="0px" y="0px"
	 viewBox="0 0 160 160" style="enable-background:new 0 0 160 160;" xml:space="preserve">
<style type="text/css">
	.st0{clip-path:url(#SVGID_2_);}
	.st1{fill:#363636;}
</style>
<g>
	<defs>
		<rect id="SVGID_1_" x="37" y="43" width="86" height="117"/>
	</defs>
	<clipPath id="SVGID_2_">
		<use xlink:href="#SVGID_1_"  style="overflow:visible;"/>
	</clipPath>
	<g class="st0">
		<path class="st1" d="M119.8,47H40.3c-1.8,0-3.2,1.4-3.2,3.2v46.4c0,1.8,1.4,3.2,3.2,3.2c0,0,0,0,0,0h79.5c1.8,0,3.2-1.4,3.2-3.2
			c0,0,0,0,0,0V50.2C123,48.4,121.6,47,119.8,47C119.8,47,119.8,47,119.8,47z M45.4,80.2h-0.2c-1.8,0-3.2-1.4-3.2-3.2v-7.3
			c0-1.8,1.4-3.2,3.2-3.2c0,0,0,0,0,0h0.2V80.2z M106.6,95.4H50.3v-44h56.3V95.4z M115.4,77.6c-2.3,0-4.1-1.9-4.1-4.1c0,0,0,0,0,0
			c0-2.3,1.9-4.1,4.1-4.1c2.3,0,4.1,1.9,4.1,4.1C119.5,75.7,117.7,77.6,115.4,77.6z M91.7,43H68.5v2.8h23.2V43z M83.6,107.9v-3h8
			v-2.8H68.5v2.8h8v35.2c-2.2,1-3.6,3.1-3.6,5.6V160h14.3v-14.3c0-2.4-1.4-4.6-3.6-5.6v-28h4.8l5.1,1.2v-6.7l-5.1,1.2H83.6z"/>
	</g>
</g>
</svg>
