<?xml version="1.0" encoding="utf-8"?>
<!-- Generator: Adobe Illustrator 25.0.1, SVG Export Plug-In . SVG Version: 6.00 Build 0)  -->
<svg version="1.1" id="Layer_1" xmlns="http://www.w3.org/2000/svg" xmlns:xlink="http://www.w3.org/1999/xlink" x="0px" y="0px"
	 viewBox="0 0 160 160" style="enable-background:new 0 0 160 160;" xml:space="preserve">
<style type="text/css">
	.st0{clip-path:url(#SVGID_2_);}
	.st1{fill:#363636;}
</style>
<g>
	<defs>
		<rect id="SVGID_1_" x="52" y="31" width="56" height="98"/>
	</defs>
	<clipPath id="SVGID_2_">
		<use xlink:href="#SVGID_1_"  style="overflow:visible;"/>
	</clipPath>
	<g class="st0">
		<path class="st1" d="M106.5,63.2H105v-4.6c0-5.1-4.1-9.2-9.1-9.2H61.1c-5,0-9.1,4.1-9.1,9.2v42.9c0,5.1,4.1,9.2,9.1,9.2h34.8
			c5,0,9.1-4.1,9.1-9.2V98h1.5c0.4,0,0.8-0.3,0.8-0.8V83.5c0-0.4-0.3-0.8-0.8-0.8H105v-8.8h1.5c0.8,0,1.5-0.7,1.5-1.5v-7.7
			C108,63.9,107.3,63.2,106.5,63.2z M86.1,60.1c2.9,0,5.3,2.4,5.3,5.4s-2.4,5.4-5.3,5.4s-5.3-2.4-5.3-5.4
			C80.8,62.5,83.2,60.1,86.1,60.1z M70.9,60.1c2.9,0,5.3,2.4,5.3,5.4s-2.4,5.4-5.3,5.4c-2.9,0-5.3-2.4-5.3-5.4
			C65.6,62.5,68,60.1,70.9,60.1z M57.3,80.4c0-3,2.4-5.4,5.3-5.4c2.9,0,5.3,2.4,5.3,5.4s-2.4,5.4-5.3,5.4
			C59.7,85.8,57.3,83.4,57.3,80.4z M70.9,99.9c-2.9,0-5.3-2.4-5.3-5.4s2.4-5.4,5.3-5.4c2.9,0,5.3,2.4,5.3,5.4S73.9,99.9,70.9,99.9z
			 M72.4,80c0-3.4,2.7-6.1,6.1-6.1s6.1,2.7,6.1,6.1c0,3.4-2.7,6.1-6.1,6.1C75.1,86.1,72.4,83.4,72.4,80z M86.1,99.9
			c-2.9,0-5.3-2.4-5.3-5.4s2.4-5.4,5.3-5.4s5.3,2.4,5.3,5.4S89,99.9,86.1,99.9z M94.4,85.8c-2.9,0-5.3-2.4-5.3-5.4
			c0-3,2.4-5.4,5.3-5.4c2.9,0,5.3,2.4,5.3,5.4C99.7,83.4,97.3,85.8,94.4,85.8z M61.6,46.3h33.7c0.8,0,1.4-0.7,1.3-1.5L95,34l0,0
			c-0.2-1.7-1.8-3-3.5-3h-26c-1.7,0-3.3,1.4-3.5,3l-1.6,10.8C60.2,45.6,60.8,46.3,61.6,46.3z M95.3,113.7H61.6
			c-0.8,0-1.4,0.7-1.3,1.5L62,126c0.2,1.7,1.8,3,3.5,3h26c1.7,0,3.3-1.4,3.5-3v0l1.6-10.8C96.8,114.4,96.2,113.7,95.3,113.7z"/>
	</g>
</g>
</svg>
