<?xml version="1.0" encoding="utf-8"?>
<!-- Generator: Adobe Illustrator 25.0.1, SVG Export Plug-In . SVG Version: 6.00 Build 0)  -->
<svg version="1.1" id="Layer_1" xmlns="http://www.w3.org/2000/svg" xmlns:xlink="http://www.w3.org/1999/xlink" x="0px" y="0px"
	 viewBox="0 0 160 160" style="enable-background:new 0 0 160 160;" xml:space="preserve">
<style type="text/css">
	.st0{fill:#363636;}
</style>
<path class="st0" d="M115.6,85.1V72.5c0-1.3,1-2.4,2.3-2.4l8.3,1.6v-8.2c0-2.4-1.7-3.4-4.2-4.3l-23.2-6.6c1.6,1.4,1.9,2,1.9,4.4
	v45.2c0,2.4-0.4,4.1-2,5.2l23.3-7.1c2.4-0.8,4.2-4.2,4.2-6.6v-7.9l-8.3,1.6C116.7,87.5,115.6,86.4,115.6,85.1z"/>
<path class="st0" d="M126.6,73.5L119,72c-1,0-1.8,0.8-1.8,1.9v9.9c0,1,0.8,1.9,1.8,1.9l7.6-1.4c1.2-0.4,1.8-0.8,1.8-1.9v-7
	C128.5,74.3,127.7,73.8,126.6,73.5L126.6,73.5z M98.7,57c0-5.1-4.2-4.5-4.2-4.5s-57.1,4.7-60.1,5.1S31.5,62,31.5,62v36.3
	c0,3.7,2.6,3.8,2.6,3.8l16.5,1.4l8.1-11.7c0,0,1.1-1.8,2.5-1.8c1.4,0,2.4,1.9,2.4,1.9l9.1,13.5c0,0,18.9,1.9,22.5,1.9
	c3.6,0,3.4-5,3.4-5L98.7,57L98.7,57z M44.5,89.7c-3.7,0-6.7-4.6-6.7-10.3c0-5.7,3-10.3,6.7-10.3c3.7,0,6.7,4.6,6.7,10.3
	C51.2,85.1,48.2,89.7,44.5,89.7z M80.6,91.1c-4.7,0-8.4-5.2-8.4-11.7c0-6.5,3.8-11.7,8.4-11.7c4.7,0,8.4,5.2,8.4,11.7
	C89.1,85.9,85.3,91.1,80.6,91.1z"/>
</svg>
